<svg width="512" height="512" viewBox="0 0 512 512" fill="none" xmlns="http://www.w3.org/2000/svg">
  <path d="M394.7 149.3C389.3 98 346.2 58.7 293.3 58.7C252 58.7 216.7 81.3 198.7 116C193.3 114.7 188 113.3 182.7 113.3C121.3 113.3 72 162.7 72 224C72 285.3 121.3 334.7 182.7 334.7H385.3C432 334.7 470.7 296 470.7 249.3C470.7 204 437.3 166.7 394.7 149.3Z" fill="url(#paint0_linear)"/>
  
  <circle cx="270" cy="220" r="35" fill="#F59E0B" stroke="#1e3a8a" stroke-width="8"/>
  
  <path d="M270 220L320 340L355 285L410 265L270 220Z" fill="#F59E0B" stroke="#1e3a8a" stroke-width="8" stroke-linejoin="round"/>
  
  <defs>
    <linearGradient id="paint0_linear" x1="72" y1="58.7" x2="470.7" y2="334.7" gradientUnits="userSpaceOnUse">
      <stop stop-color="#1e40af"/> <stop offset="1" stop-color="#172554"/> </linearGradient>
  </defs>
</svg>